<svg xmlns="http://www.w3.org/2000/svg" version="1.1" xmlns:xlink="http://www.w3.org/1999/xlink" xmlns:svgjs="http://svgjs.dev/svgjs" width="1000" height="623" viewBox="0 0 1000 623"><g transform="matrix(1,0,0,1,-0.6060606060606233,0.2522267206477409)"><svg viewBox="0 0 396 247" data-background-color="#ffffff" preserveAspectRatio="xMidYMid meet" height="623" width="1000" xmlns="http://www.w3.org/2000/svg" xmlns:xlink="http://www.w3.org/1999/xlink"><g id="tight-bounds" transform="matrix(1,0,0,1,0.2400000000000091,-0.09999999999999432)"><svg viewBox="0 0 395.52 247.2" height="247.2" width="395.52"><g><svg></svg></g><g><svg viewBox="0 0 395.52 247.2" height="247.2" width="395.52"><g transform="matrix(1,0,0,1,39.55199999999999,91.78206473575867)"><svg viewBox="0 0 316.416 63.63587052848264" height="63.63587052848264" width="316.416"><g><svg viewBox="0 0 316.416 63.63587052848264" height="63.63587052848264" width="316.416"><g><svg viewBox="0 0 316.416 63.63587052848264" height="63.63587052848264" width="316.416"><g><svg viewBox="0 0 316.416 63.63587052848264" height="63.63587052848264" width="316.416"><g id="textblocktransform"><svg viewBox="0 0 316.416 63.63587052848264" height="63.63587052848264" width="316.416" id="textblock"><g><svg viewBox="0 0 316.416 34.32214781297134" height="34.32214781297134" width="316.416"><g transform="matrix(1,0,0,1,0,0)"><svg width="316.416" viewBox="2.799999952316284 -42.29999923706055 397.760009765625 43.14999771118164" height="34.32214781297134" data-palette-color="#e65728"><path d="M16.75 0.85Q12.75 0.85 9.35 0.18 5.95-0.5 2.8-2L2.8-2 2.8-10.1Q9.15-6.75 16.75-6.75L16.75-6.75Q19.7-6.75 21.08-7.75 22.45-8.75 22.45-10.4L22.45-10.4Q22.45-12.05 21.23-12.88 20-13.7 16.85-14.55L16.85-14.55 13.45-15.5Q10.45-16.35 8.25-17.48 6.05-18.6 4.5-20.85 2.95-23.1 2.95-26.65L2.95-26.65Q2.95-32.5 6.53-35.55 10.1-38.6 16.6-38.6L16.6-38.6Q20.5-38.6 23.45-37.9 26.4-37.2 29.5-35.75L29.5-35.75 29.5-27.95Q23.8-31 16.6-31L16.6-31Q13.95-31 12.9-30.1 11.85-29.2 11.85-27.5L11.85-27.5Q11.85-26.35 12.35-25.68 12.85-25 13.9-24.55 14.95-24.1 17.05-23.5L17.05-23.5 20.5-22.55Q23.7-21.65 26-20.45 28.3-19.25 29.83-16.9 31.35-14.55 31.35-10.85L31.35-10.85Q31.3-5.4 27.43-2.27 23.55 0.85 16.75 0.85L16.75 0.85ZM45.85 0.65Q41.4 0.65 39.22-1.3 37.05-3.25 37.05-6.9L37.05-6.9 37.05-42.3 45.75-42.3 45.75-10.05Q45.75-8.4 46.3-7.73 46.85-7.05 48.3-7.05L48.3-7.05Q49.95-7.05 51.25-7.45L51.25-7.45 51.25-0.05Q49.55 0.3 48.37 0.48 47.2 0.65 45.85 0.65L45.85 0.65ZM56-32.8L56-40.35 64.7-40.35 64.7-32.8 56-32.8ZM56 0L56-28.3 64.7-28.3 64.7 0 56 0ZM84.34 0.85Q77.34 0.8 73.64-3.13 69.94-7.05 69.94-14.2L69.94-14.2Q69.94-21.3 73.64-25.18 77.34-29.05 84.34-29.1L84.34-29.1Q86.89-29.1 88.69-28.8 90.49-28.5 92.44-27.7L92.44-27.7 92.44-19.8Q90.59-20.7 88.97-21.05 87.34-21.4 85.34-21.4L85.34-21.4Q81.99-21.35 80.49-19.55 78.99-17.75 78.99-14.25L78.99-14.25Q78.99-10.65 80.44-8.75 81.89-6.85 85.09-6.85L85.09-6.85Q86.89-6.85 88.57-7.4 90.24-7.95 92.04-9.1L92.04-9.1 94.49-1.9Q89.89 0.85 84.34 0.85L84.34 0.85ZM106.59-11.45Q107.14-9.05 108.87-7.7 110.59-6.35 113.94-6.35L113.94-6.35Q115.89-6.35 117.67-6.83 119.44-7.3 121.74-8.45L121.74-8.45 123.99-1.75Q121.39-0.3 118.84 0.28 116.29 0.85 112.74 0.85L112.74 0.85Q107.79 0.85 104.32-1.03 100.84-2.9 99.04-6.3 97.24-9.7 97.24-14.2L97.24-14.2Q97.24-18.9 99.09-22.28 100.94-25.65 104.09-27.38 107.24-29.1 111.14-29.1L111.14-29.1Q117.39-29.1 120.94-25.48 124.49-21.85 124.49-14.9L124.49-14.9 124.49-11.45 106.59-11.45ZM111.14-21.9Q109.34-21.9 108.22-21 107.09-20.1 106.64-17.9L106.64-17.9 115.34-17.9Q115.14-20 114.12-20.95 113.09-21.9 111.14-21.9L111.14-21.9ZM158.24 0.85Q151.94 0.85 147.54-1.73 143.14-4.3 140.94-8.78 138.74-13.25 138.74-18.9L138.74-18.9Q138.74-24.45 140.94-28.9 143.14-33.35 147.54-35.98 151.94-38.6 158.24-38.6L158.24-38.6Q164.44-38.6 168.84-35.98 173.24-33.35 175.46-28.88 177.69-24.4 177.69-18.9L177.69-18.9Q177.69-13.25 175.46-8.78 173.24-4.3 168.86-1.73 164.49 0.85 158.24 0.85L158.24 0.85ZM158.24-6.75Q163.09-6.75 165.79-10.15 168.49-13.55 168.49-19.05L168.49-19.05Q168.49-22.5 167.29-25.2 166.09-27.9 163.76-29.45 161.44-31 158.24-31L158.24-31Q153.29-31 150.61-27.65 147.94-24.3 147.94-18.9L147.94-18.9Q147.94-13.4 150.59-10.08 153.24-6.75 158.24-6.75L158.24-6.75ZM182.63-22.8L182.63-37.9 190.43-37.9 190.43-22.8 182.63-22.8ZM232.58-37.9L241.58-37.9 241.58 0 232.58 0 232.58-15.2 217.63-15.2 217.63 0 208.63 0 208.63-37.9 217.63-37.9 217.63-22.9 232.58-22.9 232.58-37.9ZM256.68-11.45Q257.22-9.05 258.95-7.7 260.68-6.35 264.02-6.35L264.02-6.35Q265.97-6.35 267.75-6.83 269.52-7.3 271.82-8.45L271.82-8.45 274.07-1.75Q271.47-0.3 268.93 0.28 266.38 0.85 262.82 0.85L262.82 0.85Q257.88 0.85 254.4-1.03 250.92-2.9 249.13-6.3 247.32-9.7 247.32-14.2L247.32-14.2Q247.32-18.9 249.17-22.28 251.02-25.65 254.17-27.38 257.32-29.1 261.22-29.1L261.22-29.1Q267.47-29.1 271.02-25.48 274.57-21.85 274.57-14.9L274.57-14.9 274.57-11.45 256.68-11.45ZM261.22-21.9Q259.43-21.9 258.3-21 257.18-20.1 256.72-17.9L256.72-17.9 265.43-17.9Q265.22-20 264.2-20.95 263.18-21.9 261.22-21.9L261.22-21.9ZM290.57-28.3Q296.07-28.3 298.95-26.83 301.82-25.35 302.77-22.9 303.72-20.45 303.72-16.65L303.72-16.65 303.72 0 295.02 0 295.02-2.3Q293.27-0.7 291.57-0.03 289.87 0.65 287.82 0.65L287.82 0.65Q283.02 0.65 280.3-1.88 277.57-4.4 277.57-8.9L277.57-8.9Q277.57-13.45 280.35-15.9 283.12-18.35 288.07-18.35L288.07-18.35Q292.17-18.35 295.02-16.85L295.02-16.85Q294.97-18.25 294.6-19.07 294.22-19.9 293.1-20.35 291.97-20.8 289.82-20.8L289.82-20.8 284.12-20.8 284.12-28.3 290.57-28.3ZM289.67-6.05Q292.22-6.05 295.02-8.35L295.02-8.35 295.02-11Q292.62-12.15 290.17-12.15L290.17-12.15Q288.37-12.15 287.37-11.38 286.37-10.6 286.37-9L286.37-9Q286.37-7.35 287.22-6.7 288.07-6.05 289.67-6.05L289.67-6.05ZM328.82-28.3L337.72-28.3 328.57 0.45 317.17 0.45 307.97-28.3 316.87-28.3 322.87-7.5 328.82-28.3ZM349.82-11.45Q350.37-9.05 352.09-7.7 353.82-6.35 357.17-6.35L357.17-6.35Q359.12-6.35 360.89-6.83 362.67-7.3 364.97-8.45L364.97-8.45 367.22-1.75Q364.62-0.3 362.07 0.28 359.52 0.85 355.97 0.85L355.97 0.85Q351.02 0.85 347.54-1.03 344.07-2.9 342.27-6.3 340.47-9.7 340.47-14.2L340.47-14.2Q340.47-18.9 342.32-22.28 344.17-25.65 347.32-27.38 350.47-29.1 354.37-29.1L354.37-29.1Q360.62-29.1 364.17-25.48 367.72-21.85 367.72-14.9L367.72-14.9 367.72-11.45 349.82-11.45ZM354.37-21.9Q352.57-21.9 351.44-21 350.32-20.1 349.87-17.9L349.87-17.9 358.57-17.9Q358.37-20 357.34-20.95 356.32-21.9 354.37-21.9L354.37-21.9ZM389.31-28.9Q394.96-28.9 397.76-26.05 400.56-23.2 400.56-17L400.56-17 400.56 0 391.86 0 391.86-17Q391.86-19.05 390.84-20.13 389.81-21.2 387.36-21.2L387.36-21.2Q384.46-21.2 381.41-18.8L381.41-18.8 381.41 0 372.71 0 372.71-28.3 381.41-28.3 381.41-26.05Q383.26-27.5 385.19-28.2 387.11-28.9 389.31-28.9L389.31-28.9Z" opacity="1" transform="matrix(1,0,0,1,0,0)" fill="#e65728" class="undefined-text-0" data-fill-palette-color="primary" id="text-0"></path></svg></g></svg></g><g transform="matrix(1,0,0,1,0,42.424783180066356)"><svg viewBox="0 0 316.416 21.211087348416285" height="21.211087348416285" width="316.416"><g transform="matrix(1,0,0,1,0,0)"><svg width="316.416" viewBox="5.349999904632568 -42.29999923706055 818.2200317382812 54.849998474121094" height="21.211087348416285" data-palette-color="#e65728"><path d="M28.3-33.55L10.2-33.55 10.2-20.55 25.8-20.55 25.8-16.2 10.2-16.2 10.2 0 5.35 0 5.35-37.9 28.3-37.9 28.3-33.55ZM88.42-28.25L89.57-28.25 89.57-23.85 88.42-23.85Q84.12-23.85 80.07-20.4L80.07-20.4 80.07 0 75.37 0 75.37-27.65 80.07-27.65 80.07-24.55Q84.17-28.25 88.42-28.25L88.42-28.25ZM139-13.45Q139.1-8.85 141.3-6.1 143.5-3.35 148.3-3.35L148.3-3.35Q151.95-3.35 156.3-5.4L156.3-5.4 157.75-1.5Q153.2 0.85 147.9 0.85L147.9 0.85Q143.5 0.85 140.4-1 137.3-2.85 135.7-6.15 134.1-9.45 134.1-13.85L134.1-13.85Q134.1-18.5 135.77-21.78 137.45-25.05 140.3-26.75 143.15-28.45 146.7-28.45L146.7-28.45Q152.15-28.45 155.25-25.05 158.35-21.65 158.35-15.3L158.35-15.3 158.35-13.45 139-13.45ZM146.7-24.25Q140.5-24.25 139.3-17.4L139.3-17.4 153.4-17.4Q153.15-20.9 151.5-22.58 149.85-24.25 146.7-24.25L146.7-24.25ZM213.67 0.85Q210.62 0.85 208.27 0.35 205.92-0.15 203.37-1.35L203.37-1.35 203.37-6Q208.12-3.35 213.67-3.35L213.67-3.35Q216.47-3.35 217.69-4.48 218.92-5.6 218.92-7.45L218.92-7.45Q218.92-9.25 217.94-10.1 216.97-10.95 214.77-11.55L214.77-11.55 211.52-12.35Q208.02-13.2 206.02-15.05 204.02-16.9 204.02-20.5L204.02-20.5Q204.02-24.25 206.47-26.35 208.92-28.45 213.67-28.45L213.67-28.45Q216.12-28.45 218.22-27.98 220.32-27.5 222.42-26.65L222.42-26.65 222.42-22.25Q220.37-23.2 218.37-23.73 216.37-24.25 213.82-24.25L213.82-24.25Q211.17-24.25 209.99-23.23 208.82-22.2 208.82-20.65L208.82-20.65Q208.82-18.95 209.84-18.07 210.87-17.2 212.82-16.7L212.82-16.7 216.12-15.95Q218.62-15.35 220.24-14.45 221.87-13.55 222.79-11.93 223.72-10.3 223.72-7.6L223.72-7.6Q223.72-3.55 220.99-1.35 218.27 0.85 213.67 0.85L213.67 0.85ZM284.34-28.25Q289.44-28.25 291.92-25.55 294.39-22.85 294.39-16.65L294.39-16.65 294.39 0 289.69 0 289.69-16.65Q289.69-20.55 288.37-22.2 287.04-23.85 283.69-23.85L283.69-23.85Q279.79-23.85 275.89-20.45L275.89-20.45 275.89 0 271.19 0 271.19-42.3 275.89-42.3 275.89-24.7Q279.94-28.25 284.34-28.25L284.34-28.25ZM350.41 0.65Q346.66 0.65 345.01-0.85 343.36-2.35 343.36-5.9L343.36-5.9 343.36-42.3 348.06-42.3 348.06-7.15Q348.06-5.15 348.69-4.42 349.31-3.7 351.06-3.7L351.06-3.7Q352.46-3.7 353.56-4L353.56-4 353.56 0.3Q351.56 0.65 350.41 0.65L350.41 0.65ZM417.04-27.65L421.79-27.65 409.54 4.45Q408.24 7.85 407.19 9.5 406.14 11.15 404.71 11.85 403.29 12.55 400.79 12.55L400.79 12.55Q399.34 12.55 397.84 12.15L397.84 12.15 397.84 7.9Q399.14 8.2 400.44 8.2L400.44 8.2Q402.14 8.2 403.11 7.2 404.09 6.2 405.24 3.25L405.24 3.25 406.54-0.1 396.04-27.65 400.94-27.65 408.89-6.25 417.04-27.65ZM539.43-19.25Q546.23-17.05 546.23-10.25L546.23-10.25Q546.23-5.05 543.11-2.53 539.98 0 532.68 0L532.68 0 519.58 0 519.58-37.9 532.68-37.9Q539.33-37.9 542.03-35.4 544.73-32.9 544.73-27.75L544.73-27.75Q544.73-24.7 543.46-22.58 542.18-20.45 539.43-19.25L539.43-19.25ZM524.43-33.8L524.43-21.05 532.68-21.05Q539.73-21.05 539.78-27.4L539.78-27.4Q539.78-30.9 538.23-32.35 536.68-33.8 532.68-33.8L532.68-33.8 524.43-33.8ZM541.28-10.55Q541.28-13.9 539.11-15.43 536.93-16.95 532.68-16.95L532.68-16.95 524.43-16.95 524.43-4.1 532.68-4.1Q537.38-4.1 539.33-5.65 541.28-7.2 541.28-10.55L541.28-10.55ZM602.91-27.65Q607.31-27.65 609.61-26.18 611.91-24.7 612.66-22.23 613.41-19.75 613.41-16L613.41-16 613.41 0 608.71 0 608.71-2.75Q606.81-0.95 604.91-0.15 603.01 0.65 600.81 0.65L600.81 0.65Q598.21 0.65 596.11-0.48 594.01-1.6 592.78-3.73 591.56-5.85 591.56-8.75L591.56-8.75Q591.56-13.25 594.36-15.73 597.16-18.2 601.91-18.2L601.91-18.2Q605.66-18.2 608.66-16.55L608.66-16.55Q608.61-19 608.16-20.45 607.71-21.9 606.31-22.68 604.91-23.45 602.16-23.45L602.16-23.45 598.46-23.45 598.46-27.65 602.91-27.65ZM601.46-3.4Q603.16-3.4 605.03-4.2 606.91-5 608.71-6.6L608.71-6.6 608.71-12.9Q605.91-14.3 602.61-14.3L602.61-14.3Q599.96-14.3 598.16-13.03 596.36-11.75 596.36-8.75L596.36-8.75Q596.36-5.95 597.88-4.67 599.41-3.4 601.46-3.4L601.46-3.4ZM679.18 0L669.08-12.75 666.08-9.7 666.08 0 661.38 0 661.38-42.3 666.08-42.3 666.08-15.65 677.38-27.3 683.28-27.3 672.28-16 684.88 0 679.18 0ZM734-13.45Q734.1-8.85 736.3-6.1 738.5-3.35 743.3-3.35L743.3-3.35Q746.95-3.35 751.3-5.4L751.3-5.4 752.75-1.5Q748.2 0.85 742.9 0.85L742.9 0.85Q738.5 0.85 735.4-1 732.3-2.85 730.7-6.15 729.1-9.45 729.1-13.85L729.1-13.85Q729.1-18.5 730.78-21.78 732.45-25.05 735.3-26.75 738.15-28.45 741.7-28.45L741.7-28.45Q747.15-28.45 750.25-25.05 753.35-21.65 753.35-15.3L753.35-15.3 753.35-13.45 734-13.45ZM741.7-24.25Q735.5-24.25 734.3-17.4L734.3-17.4 748.4-17.4Q748.15-20.9 746.5-22.58 744.85-24.25 741.7-24.25L741.7-24.25ZM818.87-42.3L823.57-42.3 823.57 0 818.87 0 818.87-2.5Q814.92 0.85 810.87 0.85L810.87 0.85Q805.27 0.85 801.92-2.9 798.57-6.65 798.57-13.8L798.57-13.8Q798.57-20.95 801.92-24.7 805.27-28.45 810.87-28.45L810.87-28.45Q814.87-28.45 818.87-25.05L818.87-25.05 818.87-42.3ZM811.47-3.5Q815.07-3.5 818.87-6.6L818.87-6.6 818.87-20.95Q815.17-24.05 811.47-24.05L811.47-24.05Q807.52-24.05 805.5-21.45 803.47-18.85 803.47-13.8L803.47-13.8Q803.47-8.75 805.5-6.13 807.52-3.5 811.47-3.5L811.47-3.5Z" opacity="1" transform="matrix(1,0,0,1,0,0)" fill="#e65728" class="undefined-text-1" data-fill-palette-color="secondary" id="text-1"></path></svg></g></svg></g></svg></g></svg></g><g></g></svg></g></svg></g></svg></g><g mask="url(#d6c7d006-0bdb-44ad-babe-1f7ffb814537)"><g transform="matrix(2.5959218342820414, 0, 0, 2.5959218342820414, 75.77701468525103, 1.0000000000000142)"><svg xmlns="http://www.w3.org/2000/svg" xmlns:xlink="http://www.w3.org/1999/xlink" version="1.1" x="0" y="0" viewBox="3.703518867492676 1.559000015258789 93.98047637939453 94.45584869384766" enable-background="new 0 0 100 100" xml:space="preserve" height="94.45584869384766" width="93.98047637939453" class="icon-none" data-fill-palette-color="accent" id="none"><path d="M14.257 65.774c4.191 9.445 11.735 16.402 20.631 20.071l13.931-34.924L14.257 65.774zM20.294 69.357c-0.836-1.946 0.063-4.201 2.01-5.038 1.947-0.836 4.202 0.063 5.039 2.009 0.837 1.947-0.063 4.203-2.01 5.039C23.386 72.204 21.13 71.305 20.294 69.357zM34.255 79.309c-1.946 0.837-4.202-0.062-5.038-2.01-0.836-1.946 0.063-4.201 2.01-5.037 1.946-0.837 4.202 0.062 5.038 2.009C37.102 76.217 36.202 78.473 34.255 79.309zM37.428 67.26c-1.946 0.837-4.202-0.062-5.038-2.01-0.836-1.946 0.063-4.202 2.009-5.038 1.947-0.837 4.203 0.063 5.039 2.01S39.375 66.424 37.428 67.26z" fill="#e65728" data-fill-palette-color="accent"></path><path d="M11.821 35.463l-5.004-1.996C2.675 44.157 2.508 56.389 7.269 67.775l4.933-2.12C8.033 55.646 8.187 44.882 11.821 35.463z" fill="#e65728" data-fill-palette-color="accent"></path><path d="M33.217 12.967l-2.12-4.934C19.807 13.018 11.51 22.007 7.157 32.612l5.005 1.996C16.007 25.274 23.305 17.359 33.217 12.967z" fill="#e65728" data-fill-palette-color="accent"></path><path d="M64.254 12.223l1.997-5.005C55.561 3.077 43.328 2.91 31.943 7.67l2.12 4.934C44.071 8.435 54.835 8.588 64.254 12.223z" fill="#e65728" data-fill-palette-color="accent"></path><path d="M35.744 86.188c8.98 3.46 19.241 3.605 28.782-0.363L49.673 51.263 35.744 86.188zM46.19 84.062c-1.684 1.286-4.091 0.963-5.377-0.721-1.285-1.684-0.963-4.091 0.721-5.377 1.683-1.284 4.091-0.962 5.375 0.721C48.196 80.37 47.874 82.775 46.19 84.062zM46.339 72.75c-1.286-1.683-0.962-4.087 0.721-5.375 1.683-1.286 4.09-0.963 5.375 0.72 1.287 1.685 0.965 4.092-0.719 5.377C50.032 74.757 47.625 74.436 46.339 72.75zM58.648 84.2c-1.684 1.285-4.09 0.964-5.375-0.721-1.286-1.683-0.964-4.09 0.721-5.376 1.683-1.284 4.089-0.963 5.374 0.721C60.655 80.508 60.333 82.915 58.648 84.2z" fill="#e65728" data-fill-palette-color="accent"></path><path d="M56.498 43.198l34.561-14.852C86.868 18.9 79.323 11.943 70.427 8.273L56.498 43.198zM70.74 33.651c-1.982 0.751-4.195-0.249-4.945-2.23-0.748-1.981 0.251-4.195 2.232-4.944 1.981-0.75 4.194 0.25 4.944 2.232C73.72 30.69 72.722 32.902 70.74 33.651zM85.238 25.142c0.748 1.981-0.251 4.194-2.231 4.943-1.982 0.75-4.195-0.25-4.946-2.23-0.747-1.982 0.251-4.196 2.233-4.945C82.275 22.161 84.488 23.16 85.238 25.142zM74.444 21.755c-1.982 0.75-4.193-0.25-4.943-2.231-0.751-1.981 0.25-4.195 2.231-4.944s4.195 0.25 4.944 2.232C77.426 18.793 76.425 21.006 74.444 21.755z" fill="#e65728" data-fill-palette-color="accent"></path><path d="M92.75 27.619l4.934-2.12C92.7 14.208 83.711 5.912 73.105 1.559l-1.996 5.004C80.443 10.409 88.358 17.707 92.75 27.619z" fill="#e65728" data-fill-palette-color="accent"></path><path d="M85.785 63.975c3.461-8.98 3.605-19.241-0.362-28.782L50.861 50.044 85.785 63.975zM76.314 42.001c0.937-1.901 3.236-2.682 5.137-1.745 1.9 0.937 2.681 3.235 1.746 5.137-0.938 1.9-3.237 2.681-5.137 1.744C76.16 46.202 75.379 43.902 76.314 42.001zM81.212 52.2c1.9 0.936 2.681 3.233 1.744 5.136-0.938 1.9-3.235 2.681-5.136 1.745-1.9-0.937-2.682-3.235-1.747-5.136C77.011 52.045 79.31 51.263 81.212 52.2zM70.229 45.673c1.902 0.935 2.683 3.235 1.747 5.137-0.938 1.899-3.236 2.68-5.135 1.743-1.904-0.936-2.684-3.235-1.747-5.135C66.031 45.518 68.329 44.736 70.229 45.673z" fill="#e65728" data-fill-palette-color="accent"></path><path d="M65.372 85.461c9.445-4.191 16.402-11.735 20.072-20.631L50.52 50.898 65.372 85.461zM74.408 63.249c1.979-0.756 4.196 0.237 4.952 2.216 0.755 1.98-0.238 4.196-2.217 4.951-1.98 0.756-4.196-0.238-4.95-2.217C71.437 66.22 72.429 64.005 74.408 63.249zM62.501 59.579c1.979-0.756 4.196 0.238 4.95 2.219 0.756 1.979-0.237 4.194-2.216 4.95-1.979 0.753-4.195-0.238-4.95-2.218C59.529 62.551 60.522 60.334 62.501 59.579zM66.103 71.834c1.979-0.754 4.196 0.237 4.952 2.219 0.757 1.979-0.237 4.194-2.216 4.95-1.98 0.753-4.195-0.239-4.95-2.217C63.133 74.806 64.125 72.591 66.103 71.834z" fill="#e65728" data-fill-palette-color="accent"></path><path d="M35.062 87.896l-1.996 5.005c10.689 4.142 22.922 4.31 34.308-0.452l-2.12-4.934C55.245 91.684 44.48 91.53 35.062 87.896z" fill="#e65728" data-fill-palette-color="accent"></path><path d="M33.944 14.659C24.498 18.85 17.542 26.394 13.872 35.29l34.924 13.93L33.944 14.659zM25.689 36.676c-1.974 0.769-4.198-0.206-4.968-2.18-0.77-1.974 0.206-4.198 2.18-4.967 1.974-0.77 4.197 0.206 4.967 2.179C28.638 33.682 27.663 35.906 25.689 36.676zM37.624 40.255c-1.974 0.77-4.198-0.206-4.968-2.18-0.77-1.974 0.206-4.197 2.181-4.967 1.973-0.77 4.196 0.206 4.966 2.18C40.573 37.262 39.597 39.486 37.624 40.255zM33.93 28.027c-1.974 0.77-4.198-0.206-4.968-2.18-0.77-1.973 0.207-4.197 2.18-4.967 1.973-0.77 4.197 0.206 4.967 2.18S35.903 27.257 33.93 28.027z" fill="#e65728" data-fill-palette-color="accent"></path><path d="M66.099 87.152l2.12 4.934c11.29-4.983 19.587-13.973 23.94-24.578l-5.005-1.996C83.308 74.846 76.011 82.761 66.099 87.152z" fill="#e65728" data-fill-palette-color="accent"></path><path d="M87.113 34.465c4.168 10.008 4.016 20.773 0.382 30.191l5.005 1.997c4.141-10.69 4.309-22.923-0.452-34.308L87.113 34.465z" fill="#e65728" data-fill-palette-color="accent"></path><path d="M13.53 36.145c-3.46 8.98-3.605 19.241 0.363 28.783l34.562-14.852L13.53 36.145zM22.148 58.113c-0.992 1.872-3.312 2.587-5.185 1.596-1.873-0.992-2.587-3.312-1.596-5.186 0.992-1.871 3.312-2.586 5.185-1.595C22.424 53.919 23.139 56.241 22.148 58.113zM22.736 46.182c-0.991 1.873-3.312 2.587-5.185 1.596s-2.587-3.312-1.595-5.185c0.991-1.873 3.312-2.586 5.184-1.596C23.012 41.989 23.727 44.31 22.736 46.182zM33.522 53.024c-0.991 1.873-3.312 2.588-5.185 1.597-1.873-0.992-2.587-3.312-1.595-5.185 0.991-1.873 3.312-2.586 5.184-1.595C33.799 48.832 34.513 51.153 33.522 53.024z" fill="#e65728" data-fill-palette-color="accent"></path><path d="M63.571 13.932c-8.979-3.46-19.24-3.605-28.781 0.363l14.852 34.562L63.571 13.932zM51.848 18.379c0.9-1.917 3.184-2.742 5.103-1.842 1.917 0.9 2.741 3.184 1.841 5.102-0.9 1.918-3.183 2.743-5.102 1.844C51.772 22.582 50.947 20.298 51.848 18.379zM52.475 32.741c-0.9 1.918-3.185 2.743-5.103 1.842-1.917-0.901-2.742-3.185-1.842-5.102s3.184-2.742 5.102-1.842C52.549 28.54 53.374 30.824 52.475 32.741zM45.005 16.522c1.917 0.9 2.742 3.185 1.842 5.102-0.9 1.918-3.184 2.743-5.102 1.843-1.917-0.9-2.743-3.185-1.842-5.103C40.803 16.448 43.086 15.623 45.005 16.522z" fill="#e65728" data-fill-palette-color="accent"></path><path d="M12.565 66.501l-4.934 2.12c4.984 11.289 13.974 19.587 24.579 23.94l1.996-5.007C24.873 83.71 16.957 76.413 12.565 66.501z" fill="#e65728" data-fill-palette-color="accent"></path></svg></g></g></svg></g><defs><mask id="d6c7d006-0bdb-44ad-babe-1f7ffb814537"><rect width="640" height="400" fill="white"></rect><rect width="348.05760000000004" height="79.84114126267269" fill="black" y="83.67942936866365" x="23.731199999999973" id="transform-me"></rect></mask></defs></svg><rect width="395.52" height="247.2" fill="none" stroke="none" visibility="hidden"></rect></g></svg></g></svg>